<svg width="22" height="17" viewBox="0 0 22 17" fill="none" xmlns="http://www.w3.org/2000/svg">
<path d="M20.625 17C20.625 17 22 17 22 15.5833C22 14.1667 20.625 9.91667 15.125 9.91667C9.625 9.91667 8.25 14.1667 8.25 15.5833C8.25 17 9.625 17 9.625 17H20.625ZM9.65525 15.5833C9.64509 15.5819 9.635 15.58 9.625 15.5777C9.62638 15.2037 9.85463 14.1185 10.67 13.141C11.429 12.2244 12.7627 11.3333 15.125 11.3333C17.4859 11.3333 18.8196 12.2258 19.58 13.141C20.3954 14.1185 20.6222 15.2051 20.625 15.5777L20.614 15.5805C20.6076 15.5816 20.6012 15.5826 20.5947 15.5833H9.65525ZM15.125 7.08333C15.8543 7.08333 16.5538 6.78482 17.0695 6.25347C17.5853 5.72212 17.875 5.00145 17.875 4.25C17.875 3.49855 17.5853 2.77788 17.0695 2.24653C16.5538 1.71518 15.8543 1.41667 15.125 1.41667C14.3957 1.41667 13.6962 1.71518 13.1805 2.24653C12.6647 2.77788 12.375 3.49855 12.375 4.25C12.375 5.00145 12.6647 5.72212 13.1805 6.25347C13.6962 6.78482 14.3957 7.08333 15.125 7.08333ZM19.25 4.25C19.25 4.80812 19.1433 5.36077 18.936 5.8764C18.7287 6.39204 18.4249 6.86055 18.0418 7.2552C17.6588 7.64985 17.204 7.96291 16.7036 8.17649C16.2031 8.39007 15.6667 8.5 15.125 8.5C14.5833 8.5 14.0469 8.39007 13.5464 8.17649C13.046 7.96291 12.5912 7.64985 12.2082 7.2552C11.8251 6.86055 11.5213 6.39204 11.314 5.8764C11.1067 5.36077 11 4.80812 11 4.25C11 3.12283 11.4346 2.04183 12.2082 1.2448C12.9818 0.447767 14.031 0 15.125 0C16.219 0 17.2682 0.447767 18.0418 1.2448C18.8154 2.04183 19.25 3.12283 19.25 4.25ZM9.537 10.3133C8.98697 10.1349 8.42 10.0176 7.84575 9.96342C7.52308 9.9318 7.19912 9.9162 6.875 9.91667C1.375 9.91667 0 14.1667 0 15.5833C0 16.5282 0.457875 17 1.375 17H7.172C6.96816 16.5577 6.86651 16.0728 6.875 15.5833C6.875 14.1525 7.39338 12.6905 8.37375 11.4693C8.70788 11.0528 9.097 10.6632 9.537 10.3133ZM6.765 11.3333C5.95121 12.5931 5.51161 14.0701 5.5 15.5833H1.375C1.375 15.215 1.6005 14.1242 2.42 13.141C3.16937 12.24 4.4715 11.3617 6.765 11.3348V11.3333ZM2.0625 4.95833C2.0625 3.83116 2.4971 2.75016 3.27068 1.95313C4.04427 1.1561 5.09348 0.708333 6.1875 0.708333C7.28152 0.708333 8.33073 1.1561 9.10432 1.95313C9.8779 2.75016 10.3125 3.83116 10.3125 4.95833C10.3125 6.0855 9.8779 7.16651 9.10432 7.96354C8.33073 8.76057 7.28152 9.20833 6.1875 9.20833C5.09348 9.20833 4.04427 8.76057 3.27068 7.96354C2.4971 7.16651 2.0625 6.0855 2.0625 4.95833ZM6.1875 2.125C5.45815 2.125 4.75868 2.42351 4.24296 2.95486C3.72723 3.48622 3.4375 4.20689 3.4375 4.95833C3.4375 5.70978 3.72723 6.43045 4.24296 6.9618C4.75868 7.49316 5.45815 7.79167 6.1875 7.79167C6.91685 7.79167 7.61632 7.49316 8.13204 6.9618C8.64777 6.43045 8.9375 5.70978 8.9375 4.95833C8.9375 4.20689 8.64777 3.48622 8.13204 2.95486C7.61632 2.42351 6.91685 2.125 6.1875 2.125Z" fill="#F2F2F2"/>
</svg>
